<?xml version="1.0" standalone="no"?>
<!DOCTYPE svg PUBLIC "-//W3C//DTD SVG 20010904//EN"
 "http://www.w3.org/TR/2001/REC-SVG-20010904/DTD/svg10.dtd">
<svg version="1.0" xmlns="http://www.w3.org/2000/svg"
 width="430.000000pt" height="200.000000pt" viewBox="0 0 430.000000 200.000000"
 preserveAspectRatio="xMidYMid meet">
<metadata>
Created by potrace 1.15, written by Peter Selinger 2001-2017
</metadata>
<g transform="translate(0.000000,200.000000) scale(0.100000,-0.100000)"
fill="#ffffff" stroke="none">
<path d="M2114 1790 c-30 -12 -64 -58 -64 -88 0 -21 -3 -23 -22 -17 -51 16
-87 16 -120 1 -50 -24 -68 -62 -68 -145 0 -65 -9 -87 -25 -61 -8 13 -88 13
-117 -1 -13 -6 -32 -22 -43 -37 -19 -26 -20 -45 -23 -382 -2 -230 1 -378 8
-420 35 -204 182 -366 384 -425 44 -13 85 -16 170 -13 106 4 115 6 196 45 129
62 220 159 278 296 26 62 26 64 30 389 l3 327 -23 15 c-31 20 -93 5 -136 -35
-17 -16 -33 -29 -36 -29 -2 0 -6 84 -8 188 -3 174 -4 189 -25 218 -36 51 -103
67 -165 39 -15 -6 -18 -2 -18 19 0 92 -89 151 -176 116z m107 -59 l29 -29 0
-320 0 -320 -25 -6 c-15 -4 -25 -14 -25 -25 0 -16 8 -18 68 -16 59 1 67 3 67
21 0 12 -8 20 -22 22 l-23 3 0 255 0 256 29 29 c32 32 47 35 85 18 53 -25 57
-49 56 -406 -1 -216 -5 -332 -12 -340 -6 -7 -21 -13 -35 -13 -56 0 -173 -76
-214 -140 -44 -69 -66 -205 -32 -198 11 2 20 21 28 58 16 76 47 132 97 173 56
45 76 55 137 68 31 6 55 18 61 29 6 10 10 73 10 140 0 106 3 127 21 159 26 45
68 79 108 87 l31 7 0 -275 c0 -152 -4 -300 -10 -329 -16 -86 -73 -190 -139
-256 -261 -258 -687 -154 -813 198 -22 61 -23 79 -26 435 l-3 370 29 32 c40
43 81 43 116 1 26 -30 26 -32 26 -204 0 -171 0 -174 -22 -181 -25 -7 -39 -24
-32 -36 3 -4 36 -8 75 -8 61 0 69 2 69 19 0 13 -8 21 -22 23 l-23 3 -3 283 -2
283 30 31 c26 25 36 29 62 24 17 -3 39 -16 49 -28 18 -19 19 -42 19 -283 l0
-263 -25 -6 c-14 -4 -25 -13 -25 -20 0 -11 18 -15 65 -18 36 -1 70 -1 75 0 20
7 9 32 -15 38 -14 3 -25 11 -25 18 0 6 0 148 0 316 l0 305 26 23 c34 30 70 28
105 -7z"/>
<path d="M3608 1774 c-54 -29 -58 -51 -58 -314 l0 -242 -32 8 c-77 17 -134 -2
-157 -52 -9 -20 -16 -24 -29 -18 -9 4 -40 9 -68 12 -46 3 -55 0 -85 -26 l-34
-30 -3 -227 c-2 -138 1 -247 8 -280 38 -184 188 -342 379 -399 70 -20 208 -21
286 -1 124 32 254 136 322 255 63 110 73 180 73 493 0 173 -4 286 -10 298 -13
24 -68 26 -110 4 -16 -8 -31 -12 -33 -7 -2 4 13 70 35 147 43 155 44 201 7
241 -52 55 -147 53 -189 -5 -10 -16 -33 -82 -51 -147 -40 -155 -57 -211 -58
-199 -1 6 -1 100 -1 210 1 194 0 202 -22 235 -13 19 -35 40 -48 47 -33 17 -89
16 -122 -3z m116 -46 l26 -23 1 -325 c0 -197 -3 -326 -9 -328 -22 -7 -45 -30
-39 -39 3 -5 37 -9 74 -8 54 1 69 5 71 18 2 11 -6 19 -24 23 -24 6 -26 10 -21
48 3 22 29 127 58 231 28 105 56 207 61 227 14 51 42 78 81 78 40 0 73 -22 81
-54 5 -22 -68 -322 -108 -439 -11 -33 -16 -83 -16 -161 l0 -114 -52 -12 c-64
-16 -147 -66 -182 -112 -55 -73 -93 -212 -60 -225 20 -8 22 -4 34 56 13 71 35
114 81 160 45 45 95 71 158 83 24 4 47 11 50 14 3 3 8 67 11 142 7 152 16 183
73 226 19 14 48 29 65 32 l32 7 0 -259 c0 -298 -8 -361 -55 -462 -121 -258
-435 -359 -682 -220 -151 84 -253 260 -253 434 0 47 4 50 47 33 36 -13 84 -4
111 22 22 20 22 20 47 0 61 -47 146 -32 185 32 19 30 20 53 20 458 l0 426 26
27 c33 32 74 34 108 4z m-199 -563 c24 -23 25 -29 25 -165 0 -155 -8 -180 -59
-198 -35 -12 -87 10 -97 42 -4 11 -7 83 -7 158 -1 131 0 139 23 163 32 34 82
34 115 0z m-210 -60 c24 -23 25 -30 25 -142 0 -65 -4 -123 -8 -129 -26 -39
-93 -44 -127 -9 -24 23 -25 30 -25 138 0 107 1 116 25 141 32 34 77 35 110 1z"/>
<path d="M680 1334 c-8 -4 -29 -20 -47 -36 -30 -29 -32 -30 -54 -14 -39 27
-103 21 -142 -14 -34 -29 -35 -29 -67 -14 -62 31 -137 7 -169 -53 -17 -33 -15
-583 3 -649 34 -129 140 -256 262 -314 61 -30 81 -34 171 -38 84 -3 114 -1
170 17 115 36 208 109 270 212 55 92 63 145 63 404 0 227 0 232 -22 252 -13
11 -33 25 -44 31 -17 9 -22 23 -26 69 -4 50 -9 60 -39 85 -39 32 -109 39 -147
13 -20 -15 -23 -14 -50 16 -21 24 -38 32 -72 35 -25 2 -52 1 -60 -2z m92 -57
c20 -16 27 -32 28 -62 4 -91 9 -85 -80 -85 l-80 0 0 56 c0 48 4 59 29 85 35
35 67 37 103 6z m-203 -37 c16 -14 25 -34 29 -65 l5 -45 -42 0 c-62 0 -81 -14
-81 -58 0 -44 45 -121 86 -148 l26 -18 -26 -23 c-53 -45 -112 -19 -126 57 -5
25 -8 96 -7 157 2 106 4 114 27 137 31 30 76 33 109 6z m410 1 c16 -12 25 -31
28 -64 l6 -47 -82 0 -81 0 0 40 c0 75 72 115 129 71z m-614 -36 c24 -23 25
-30 25 -140 0 -64 -4 -124 -10 -134 -16 -30 -65 -46 -99 -31 -44 18 -53 53
-49 180 3 105 4 112 28 130 35 27 76 25 105 -5z m714 -139 c20 -18 21 -28 21
-241 0 -196 -2 -229 -20 -280 -43 -125 -121 -213 -238 -268 -63 -30 -74 -32
-177 -32 -102 1 -115 3 -178 33 -118 55 -217 177 -246 303 -6 24 -11 100 -11
168 0 114 1 123 17 115 38 -16 91 -16 123 1 32 16 33 16 60 -10 41 -39 110
-46 152 -15 30 22 30 22 64 4 19 -10 34 -21 34 -25 0 -3 -10 -18 -21 -33 -52
-66 -80 -206 -40 -206 14 0 20 10 24 43 19 135 119 236 254 255 33 5 48 12 48
22 0 12 -26 16 -145 20 -131 5 -149 8 -190 30 -44 25 -90 87 -90 123 0 17 16
18 269 15 248 -3 271 -4 290 -22z"/>
</g>
</svg>
